<svg width="540" height="1080" viewBox="0 0 540 1080" fill="none" xmlns="http://www.w3.org/2000/svg">
  <defs>
    <linearGradient id="mobile-bg" x1="0" y1="0" x2="1" y2="1">
      <stop offset="0" stop-color="#0B1221"/>
      <stop offset="1" stop-color="#152743"/>
    </linearGradient>
    <linearGradient id="mobile-accent" x1="0" y1="0" x2="1" y2="1">
      <stop offset="0" stop-color="#7C9CFF"/>
      <stop offset="1" stop-color="#34F5C5"/>
    </linearGradient>
    <filter id="frame-shadow" x="-20%" y="-5%" width="140%" height="115%" color-interpolation-filters="sRGB">
      <feDropShadow dx="0" dy="32" stdDeviation="28" flood-color="#020814" flood-opacity="0.45"/>
    </filter>
  </defs>
  <rect width="540" height="1080" rx="80" fill="url(#mobile-bg)"/>
  <rect x="42" y="44" width="456" height="992" rx="64" fill="#0E1B31" stroke="#20365E" stroke-width="4" filter="url(#frame-shadow)"/>
  <rect x="144" y="78" width="252" height="14" rx="7" fill="#172B4A"/>
  <rect x="72" y="152" width="396" height="150" rx="28" fill="#0F172A" stroke="#1E3255" stroke-width="2"/>
  <rect x="104" y="176" width="332" height="32" rx="12" fill="#13274A"/>
  <rect x="104" y="218" width="164" height="16" rx="8" fill="#1E3A73"/>
  <rect x="104" y="248" width="116" height="12" rx="6" fill="#1B2F5A"/>
  <rect x="104" y="274" width="264" height="12" rx="6" fill="#1B2F5A"/>
  <rect x="72" y="342" width="396" height="140" rx="28" fill="#0F172A" stroke="#1E3255" stroke-width="2"/>
  <rect x="104" y="366" width="132" height="20" rx="10" fill="#1E3A73"/>
  <rect x="104" y="398" width="216" height="12" rx="6" fill="#1B2F5A"/>
  <rect x="104" y="422" width="184" height="12" rx="6" fill="#1B2F5A"/>
  <rect x="104" y="448" width="96" height="12" rx="6" fill="#1B2F5A"/>
  <rect x="72" y="510" width="396" height="428" rx="28" fill="#0F172A" stroke="#1E3255" stroke-width="2"/>
  <rect x="104" y="538" width="116" height="14" rx="7" fill="#1E3A73"/>
  <rect x="104" y="566" width="192" height="10" rx="5" fill="#1B2F5A"/>
  <rect x="104" y="594" width="152" height="10" rx="5" fill="#1B2F5A"/>
  <rect x="104" y="630" width="332" height="140" rx="16" fill="#111D36" stroke="#243F72"/>
  <rect x="128" y="652" width="96" height="10" rx="5" fill="#1E3A73"/>
  <rect x="128" y="672" width="200" height="10" rx="5" fill="#1B2F5A"/>
  <rect x="128" y="692" width="168" height="10" rx="5" fill="#1B2F5A"/>
  <rect x="128" y="712" width="120" height="10" rx="5" fill="#1B2F5A"/>
  <rect x="104" y="790" width="332" height="138" rx="16" fill="#111D36" stroke="#243F72"/>
  <rect x="128" y="812" width="160" height="12" rx="6" fill="#1E3A73"/>
  <rect x="128" y="838" width="200" height="12" rx="6" fill="#1B2F5A"/>
  <rect x="128" y="864" width="180" height="12" rx="6" fill="#1B2F5A"/>
  <rect x="128" y="890" width="120" height="12" rx="6" fill="#1B2F5A"/>
  <rect x="196" y="948" width="148" height="40" rx="12" fill="url(#mobile-accent)"/>
  <rect x="234" y="76" width="72" height="6" rx="3" fill="#233A62"/>
</svg>
