<svg width="1200" height="720" viewBox="0 0 1200 720" fill="none" xmlns="http://www.w3.org/2000/svg">
  <defs>
    <linearGradient id="bg" x1="0" y1="0" x2="1" y2="1">
      <stop offset="0" stop-color="#0B1221"/>
      <stop offset="1" stop-color="#1C2D4B"/>
    </linearGradient>
    <linearGradient id="accent" x1="0" y1="0" x2="1" y2="1">
      <stop offset="0" stop-color="#7C9CFF"/>
      <stop offset="1" stop-color="#5AF0FF"/>
    </linearGradient>
    <filter id="shadow" x="-10%" y="-10%" width="120%" height="120%" color-interpolation-filters="sRGB">
      <feDropShadow dx="0" dy="24" stdDeviation="28" flood-color="#020814" flood-opacity="0.35"/>
    </filter>
  </defs>
  <rect width="1200" height="720" rx="32" fill="url(#bg)"/>
  <rect x="48" y="48" width="1104" height="624" rx="28" fill="#0F172A" stroke="#1C2E4D" stroke-width="2" filter="url(#shadow)"/>
  <rect x="80" y="92" width="1040" height="56" rx="14" fill="#111D36"/>
  <circle cx="116" cy="120" r="8" fill="#EF4444"/>
  <circle cx="142" cy="120" r="8" fill="#F59E0B"/>
  <circle cx="168" cy="120" r="8" fill="#10B981"/>
  <rect x="192" y="108" width="220" height="24" rx="10" fill="#182845"/>
  <rect x="440" y="108" width="160" height="24" rx="10" fill="#172A46"/>
  <rect x="80" y="188" width="320" height="440" rx="18" fill="#0D1830" stroke="#1E3255" stroke-width="2"/>
  <rect x="104" y="208" width="272" height="20" rx="10" fill="#132541"/>
  <rect x="104" y="248" width="140" height="14" rx="7" fill="#1E3A73"/>
  <rect x="104" y="276" width="216" height="14" rx="7" fill="#1B2F5A"/>
  <rect x="104" y="306" width="180" height="14" rx="7" fill="#1B2F5A"/>
  <rect x="104" y="344" width="272" height="80" rx="12" fill="#0F1E37" stroke="#1C2E4D"/>
  <rect x="124" y="364" width="180" height="14" rx="7" fill="#243F72"/>
  <rect x="124" y="392" width="120" height="12" rx="6" fill="#1B2F5A"/>
  <rect x="104" y="446" width="272" height="168" rx="14" fill="#0F1E37" stroke="#1C2E4D"/>
  <rect x="128" y="472" width="60" height="60" rx="12" fill="#111D36" stroke="#243F72"/>
  <rect x="200" y="472" width="120" height="12" rx="6" fill="#1E3A73"/>
  <rect x="200" y="494" width="96" height="12" rx="6" fill="#1B2F5A"/>
  <rect x="200" y="516" width="80" height="12" rx="6" fill="#1B2F5A"/>
  <rect x="128" y="552" width="60" height="60" rx="12" fill="#111D36" stroke="#243F72"/>
  <rect x="200" y="552" width="120" height="12" rx="6" fill="#1E3A73"/>
  <rect x="200" y="574" width="96" height="12" rx="6" fill="#1B2F5A"/>
  <rect x="200" y="596" width="80" height="12" rx="6" fill="#1B2F5A"/>
  <rect x="432" y="188" width="688" height="440" rx="18" fill="#0D1830" stroke="#1E3255" stroke-width="2"/>
  <rect x="460" y="216" width="210" height="16" rx="8" fill="#1E3A73"/>
  <rect x="460" y="246" width="150" height="12" rx="6" fill="#1B2F5A"/>
  <rect x="460" y="286" width="636" height="340" rx="14" fill="#0F1E37" stroke="#1C2E4D"/>
  <rect x="488" y="310" width="260" height="120" rx="12" fill="#0F172A" stroke="#20365E"/>
  <rect x="508" y="332" width="160" height="12" rx="6" fill="#1E3A73"/>
  <rect x="508" y="356" width="200" height="12" rx="6" fill="#1B2F5A"/>
  <rect x="520" y="388" width="120" height="20" rx="10" fill="url(#accent)"/>
  <rect x="488" y="450" width="260" height="166" rx="12" fill="#111D36" stroke="#20365E"/>
  <rect x="508" y="470" width="72" height="12" rx="6" fill="#1E3A73"/>
  <rect x="508" y="492" width="200" height="12" rx="6" fill="#1B2F5A"/>
  <rect x="508" y="516" width="160" height="12" rx="6" fill="#1B2F5A"/>
  <rect x="508" y="540" width="120" height="12" rx="6" fill="#1B2F5A"/>
  <rect x="780" y="310" width="300" height="120" rx="12" fill="#0F172A" stroke="#20365E"/>
  <rect x="800" y="332" width="180" height="12" rx="6" fill="#1E3A73"/>
  <rect x="800" y="356" width="230" height="12" rx="6" fill="#1B2F5A"/>
  <rect x="800" y="388" width="120" height="20" rx="10" fill="#14F195"/>
  <rect x="780" y="450" width="300" height="166" rx="12" fill="#111D36" stroke="#20365E"/>
  <rect x="800" y="470" width="180" height="12" rx="6" fill="#1E3A73"/>
  <rect x="800" y="492" width="230" height="12" rx="6" fill="#1B2F5A"/>
  <rect x="800" y="516" width="200" height="12" rx="6" fill="#1B2F5A"/>
  <rect x="800" y="540" width="160" height="12" rx="6" fill="#1B2F5A"/>
  <circle cx="1040" cy="246" r="8" fill="#14F195"/>
  <circle cx="1062" cy="246" r="8" fill="#FCD34D"/>
  <circle cx="1084" cy="246" r="8" fill="#F472B6"/>
</svg>
