<svg width="540" height="720" viewBox="0 0 540 720" fill="none" xmlns="http://www.w3.org/2000/svg">
  <defs>
    <radialGradient id="dark-bg" cx="20%" cy="20%">
      <stop offset="0%" stop-color="rgba(80,80,90,0.4)"/>
      <stop offset="60%" stop-color="rgba(10,10,12,0.95)"/>
    </radialGradient>

    <linearGradient id="blue-gradient" x1="0" y1="0" x2="1" y2="1">
      <stop offset="0%" stop-color="#0A84FF"/>
      <stop offset="100%" stop-color="#0051C7"/>
    </linearGradient>

    <filter id="shadow">
      <feDropShadow dx="0" dy="20" stdDeviation="30" flood-opacity="0.4"/>
    </filter>

    <filter id="glow">
      <feGaussianBlur stdDeviation="3" result="coloredBlur"/>
      <feMerge>
        <feMergeNode in="coloredBlur"/>
        <feMergeNode in="SourceGraphic"/>
      </feMerge>
    </filter>
  </defs>

  <rect width="540" height="720" fill="url(#dark-bg)"/>

  <g transform="translate(90, 40) skewY(-2)">
    <rect x="0" y="0" width="360" height="640" rx="50" fill="#1a1a1c" stroke="rgba(255,255,255,0.15)" stroke-width="2" filter="url(#shadow)"/>

    <rect x="100" y="0" width="160" height="32" rx="16" fill="#1a1a1c"/>

    <rect x="8" y="8" width="344" height="624" rx="42" fill="rgba(10,10,12,0.95)"/>

    <g transform="translate(28, 24)">
      <text x="0" y="0" font-family="-apple-system, sans-serif" font-size="15" font-weight="600" fill="#ffffff">9:41</text>
      <g transform="translate(250, -8)">
        <rect x="0" y="0" width="24" height="11" rx="3" stroke="rgba(255,255,255,0.4)" stroke-width="1.5" fill="none"/>
        <rect x="24" y="4" width="2" height="3" rx="1" fill="rgba(255,255,255,0.4)"/>
      </g>
    </g>

    <g transform="translate(28, 72)">
      <text x="0" y="0" font-family="-apple-system, sans-serif" font-size="32" font-weight="700" fill="#ffffff">Devices</text>
      <text x="0" y="32" font-family="-apple-system, sans-serif" font-size="16" fill="rgba(255,255,255,0.5)">3 devices online</text>
    </g>

    <g transform="translate(28, 160)">
      <rect width="304" height="104" rx="20" fill="rgba(255,255,255,0.05)"/>
      <rect x="1" y="1" width="302" height="102" rx="19" stroke="rgba(255,255,255,0.08)" stroke-width="1" fill="none"/>

      <rect x="16" y="16" width="72" height="72" rx="18" fill="rgba(59,130,246,0.1)"/>
      <rect x="32" y="32" width="40" height="28" rx="4" fill="#3B82F6" fill-opacity="0.8"/>
      <rect x="36" y="36" width="32" height="20" rx="3" fill="rgba(255,255,255,0.3)"/>

      <text x="100" y="38" font-family="-apple-system, sans-serif" font-size="18" font-weight="600" fill="#ffffff">Work PC</text>
      <text x="100" y="60" font-family="Monaco, monospace" font-size="12" fill="rgba(255,255,255,0.5)">192.168.1.100</text>

      <g transform="translate(100, 64)">
        <circle cx="4" cy="6" r="4" fill="#10B981">
          <animate attributeName="opacity" values="1;0.5;1" dur="2s" repeatCount="indefinite"/>
        </circle>
        <text x="14" y="12" font-family="-apple-system, sans-serif" font-size="13" font-weight="500" fill="#10B981">Online</text>
      </g>

      <rect x="261" y="27" width="27" height="50" rx="10" fill="rgba(16,185,129,0.08)"/>
      <text x="274" y="56" font-family="-apple-system, sans-serif" font-size="18" font-weight="600" fill="#10B981" text-anchor="middle">5</text>
    </g>

    <g transform="translate(28, 280)">
      <rect width="304" height="104" rx="20" fill="rgba(255,255,255,0.05)"/>
      <rect x="1" y="1" width="302" height="102" rx="19" stroke="rgba(255,255,255,0.08)" stroke-width="1" fill="none"/>

      <rect x="16" y="16" width="72" height="72" rx="18" fill="rgba(249,115,22,0.1)"/>
      <rect x="32" y="32" width="40" height="28" rx="4" fill="#F97316" fill-opacity="0.8"/>
      <rect x="36" y="36" width="32" height="20" rx="3" fill="rgba(255,255,255,0.3)"/>

      <text x="100" y="38" font-family="-apple-system, sans-serif" font-size="18" font-weight="600" fill="#ffffff">Home PC</text>
      <text x="100" y="60" font-family="Monaco, monospace" font-size="12" fill="rgba(255,255,255,0.5)">192.168.1.101</text>

      <g transform="translate(100, 64)">
        <circle cx="4" cy="6" r="4" fill="#10B981">
          <animate attributeName="opacity" values="1;0.5;1" dur="2s" repeatCount="indefinite"/>
        </circle>
        <text x="14" y="12" font-family="-apple-system, sans-serif" font-size="13" font-weight="500" fill="#10B981">Online</text>
      </g>
    </g>

    <g transform="translate(28, 400)">
      <rect width="304" height="104" rx="20" fill="rgba(255,255,255,0.04)"/>
      <rect x="1" y="1" width="302" height="102" rx="19" stroke="rgba(255,255,255,0.05)" stroke-width="1" fill="none"/>

      <rect x="16" y="16" width="72" height="72" rx="18" fill="rgba(100,100,110,0.1)"/>
      <rect x="32" y="32" width="40" height="28" rx="4" fill="rgba(100,100,110,0.5)"/>
      <rect x="36" y="36" width="32" height="20" rx="3" fill="rgba(255,255,255,0.2)"/>

      <text x="100" y="38" font-family="-apple-system, sans-serif" font-size="18" font-weight="600" fill="rgba(255,255,255,0.6)">MacBook Pro</text>
      <text x="100" y="60" font-family="Monaco, monospace" font-size="12" fill="rgba(255,255,255,0.4)">192.168.1.105</text>

      <g transform="translate(100, 64)">
        <circle cx="4" cy="6" r="4" fill="rgba(255,255,255,0.3)"/>
        <text x="14" y="12" font-family="-apple-system, sans-serif" font-size="13" font-weight="500" fill="rgba(255,255,255,0.4)">Offline</text>
      </g>
    </g>

    <g transform="translate(0, 560)">
      <rect x="8" y="0" width="344" height="72" rx="36" fill="rgba(255,255,255,0.04)"/>
      <rect x="8" y="0" width="344" height="1" fill="rgba(255,255,255,0.08)"/>

      <g transform="translate(60, 20)">
        <rect x="0" y="0" width="32" height="32" rx="10" fill="rgba(10,132,255,0.2)"/>
        <rect x="8" y="10" width="16" height="12" rx="2" fill="#0A84FF"/>
      </g>

      <g transform="translate(164, 20)">
        <circle cx="16" cy="16" r="8" stroke="rgba(255,255,255,0.4)" stroke-width="2" fill="none"/>
      </g>

      <g transform="translate(268, 20)">
        <circle cx="16" cy="16" r="12" stroke="rgba(255,255,255,0.4)" stroke-width="2" fill="none"/>
      </g>
    </g>
  </g>

  <ellipse cx="270" cy="680" rx="200" ry="30" fill="url(#blue-gradient)" opacity="0.1" filter="url(#glow)"/>
</svg>
